<svg preserveAspectRatio="none" width="100%" height="100%" overflow="visible" style="display: block;" viewBox="0 0 55.2599 53.0044" fill="none" xmlns="http://www.w3.org/2000/svg">
<g id="Group 16">
<path id="Ellipse 197" d="M27.6299 1C42.3768 1 54.2596 12.4565 54.2598 26.502C54.2598 40.5476 42.3769 52.0049 27.6299 52.0049C12.8829 52.0048 1 40.5475 1 26.502C1.00014 12.4565 12.883 1.00004 27.6299 1Z" fill="var(--fill-0, white)" stroke="var(--stroke-0, white)" stroke-width="2"/>
<g id="Group 11">
<path id="Vector" d="M36.0881 24.2467H35.4671V18.981C35.4671 17.0931 34.6711 15.2825 33.2542 13.9476C31.8374 12.6126 29.9157 11.8626 27.9119 11.8626C25.9081 11.8626 23.9864 12.6126 22.5695 13.9476C21.1527 15.2825 20.3567 17.0931 20.3567 18.981V24.2467H19.7357V18.981C19.7357 16.9379 20.5971 14.9785 22.1304 13.5338C23.6638 12.0892 25.7434 11.2775 27.9119 11.2775C30.0804 11.2775 32.16 12.0892 33.6933 13.5338C35.2267 14.9785 36.0881 16.9379 36.0881 18.981V24.2467Z" fill="var(--fill-0, #003049)"/>
<path id="Vector_2" d="M45.3659 19.2562C45.158 18.4278 44.6519 17.6893 43.9308 17.1618C43.2097 16.6342 42.3162 16.3488 41.3967 16.3524H12.9666C11.9923 16.3552 11.0511 16.6793 10.312 17.2665C9.57295 17.8537 9.0846 18.6654 8.93474 19.5559C8.50814 22.3036 8.36745 25.0829 8.51462 27.8555C8.56269 28.9227 8.6484 30.0182 8.77172 31.1421C8.85114 31.8767 8.94589 32.6243 9.05597 33.3847C9.19066 34.2885 9.67391 35.117 10.4167 35.7173C11.1595 36.3177 12.1119 36.6496 13.0983 36.6519H41.3424C42.2695 36.656 43.1701 36.3659 43.8939 35.8301C44.6177 35.2943 45.1211 34.5451 45.3199 33.7075C45.529 32.8491 45.7017 31.994 45.8383 31.1421C46.016 30.0527 46.1346 28.9558 46.1936 27.8555C46.3546 24.9674 46.076 22.0726 45.3659 19.2562V19.2562Z" fill="var(--fill-0, #F77F00)"/>
<path id="Vector_3" d="M36.0881 22.5551H35.4671V17.2894C35.4671 15.4015 34.6711 13.5909 33.2542 12.2559C31.8374 10.9209 29.9157 10.171 27.9119 10.171C25.9081 10.171 23.9864 10.9209 22.5695 12.2559C21.1527 13.5909 20.3567 15.4015 20.3567 17.2894V22.5551H19.7357V17.2894C19.7357 15.2463 20.5971 13.2869 22.1304 11.8422C23.6638 10.3975 25.7434 9.5859 27.9119 9.5859C30.0804 9.5859 32.16 10.3975 33.6933 11.8422C35.2267 13.2869 36.0881 15.2463 36.0881 17.2894V22.5551Z" fill="var(--fill-0, #003049)"/>
<path id="Vector_4" d="M28.1027 18.0044L27.1305 16.2966C27.0402 16.1259 26.9013 15.9867 26.7319 15.8973C26.5625 15.8079 26.3704 15.7723 26.1808 15.7954C25.9911 15.8184 25.8128 15.8988 25.6689 16.0263C25.5251 16.1537 25.4224 16.3221 25.3745 16.5096V18.4816C25.3745 18.6647 25.4462 18.8402 25.5738 18.9697C25.7014 19.0991 25.8745 19.1718 26.055 19.1718C26.2355 19.1718 26.4086 19.0991 26.5362 18.9697C26.6638 18.8402 26.7355 18.6647 26.7355 18.4816V18.3637L26.9239 18.6946C27.0142 18.8531 27.1628 18.9688 27.3372 19.0162C27.5115 19.0636 27.6972 19.0388 27.8536 18.9472C28.0099 18.8557 28.1239 18.705 28.1706 18.5281C28.2174 18.3513 28.1929 18.1629 28.1027 18.0044V18.0044Z" fill="var(--fill-0, #003049)"/>
<path id="Vector_5" d="M20.0176 23.6828C20.7962 23.6828 21.4273 23.1779 21.4273 22.5551C21.4273 21.9322 20.7962 21.4273 20.0176 21.4273C19.2391 21.4273 18.6079 21.9322 18.6079 22.5551C18.6079 23.1779 19.2391 23.6828 20.0176 23.6828Z" fill="var(--fill-0, #003049)"/>
<path id="Vector_6" d="M35.5242 23.6828C36.1471 23.6828 36.652 23.1779 36.652 22.5551C36.652 21.9322 36.1471 21.4273 35.5242 21.4273C34.9014 21.4273 34.3965 21.9322 34.3965 22.5551C34.3965 23.1779 34.9014 23.6828 35.5242 23.6828Z" fill="var(--fill-0, #003049)"/>
<path id="Vector_7" d="M46.2379 27.63C46.1787 28.7626 46.0598 29.8918 45.8816 31.0132H8.71594C8.59229 29.8549 8.50636 28.7272 8.45816 27.63H46.2379Z" fill="var(--fill-0, #3F3D56)"/>
</g>
</g>
</svg>
