<svg xmlns="http://www.w3.org/2000/svg" xmlns:xlink="http://www.w3.org/1999/xlink" width="2000" zoomAndPan="magnify" viewBox="0 0 1500 1499.999933" height="2000" preserveAspectRatio="xMidYMid meet" version="1.0"><defs><clipPath id="4c95cda185"><path d="M 150 410.167969 L 1350 410.167969 L 1350 1089.832031 L 150 1089.832031 Z M 150 410.167969 " clip-rule="nonzero"/></clipPath><clipPath id="61279064b0"><path d="M 0 0.167969 L 1200 0.167969 L 1200 679.832031 L 0 679.832031 Z M 0 0.167969 " clip-rule="nonzero"/></clipPath><clipPath id="eb13de058b"><rect x="0" width="1200" y="0" height="680"/></clipPath><clipPath id="518b286c19"><path d="M 790.367188 461.609375 L 1309.632812 461.609375 L 1309.632812 980.875 L 790.367188 980.875 Z M 790.367188 461.609375 " clip-rule="nonzero"/></clipPath><clipPath id="840fa368d0"><path d="M 1050 461.609375 C 906.609375 461.609375 790.367188 577.851562 790.367188 721.242188 C 790.367188 864.632812 906.609375 980.875 1050 980.875 C 1193.390625 980.875 1309.632812 864.632812 1309.632812 721.242188 C 1309.632812 577.851562 1193.390625 461.609375 1050 461.609375 Z M 1050 461.609375 " clip-rule="nonzero"/></clipPath><clipPath id="4d34687f7f"><path d="M 0.367188 0.609375 L 519.632812 0.609375 L 519.632812 519.875 L 0.367188 519.875 Z M 0.367188 0.609375 " clip-rule="nonzero"/></clipPath><clipPath id="217c2be66a"><path d="M 260 0.609375 C 116.609375 0.609375 0.367188 116.851562 0.367188 260.242188 C 0.367188 403.632812 116.609375 519.875 260 519.875 C 403.390625 519.875 519.632812 403.632812 519.632812 260.242188 C 519.632812 116.851562 403.390625 0.609375 260 0.609375 Z M 260 0.609375 " clip-rule="nonzero"/></clipPath><clipPath id="491a57e28d"><rect x="0" width="520" y="0" height="520"/></clipPath><clipPath id="6f63cc3eb4"><path d="M 825 496.242188 L 1275 496.242188 L 1275 946.242188 L 825 946.242188 Z M 825 496.242188 " clip-rule="nonzero"/></clipPath><clipPath id="45e7613f3c"><path d="M 1050 496.242188 C 925.734375 496.242188 825 596.980469 825 721.242188 C 825 845.507812 925.734375 946.242188 1050 946.242188 C 1174.265625 946.242188 1275 845.507812 1275 721.242188 C 1275 596.980469 1174.265625 496.242188 1050 496.242188 Z M 1050 496.242188 " clip-rule="nonzero"/></clipPath><clipPath id="40899f174a"><path d="M 0 0.242188 L 450 0.242188 L 450 450.242188 L 0 450.242188 Z M 0 0.242188 " clip-rule="nonzero"/></clipPath><clipPath id="f4aacff751"><path d="M 225 0.242188 C 100.734375 0.242188 0 100.980469 0 225.242188 C 0 349.507812 100.734375 450.242188 225 450.242188 C 349.265625 450.242188 450 349.507812 450 225.242188 C 450 100.980469 349.265625 0.242188 225 0.242188 Z M 225 0.242188 " clip-rule="nonzero"/></clipPath><clipPath id="522be7ac00"><rect x="0" width="450" y="0" height="451"/></clipPath><clipPath id="987b6e22aa"><path d="M 675 915.25 L 825 915.25 L 825 1046.5 L 675 1046.5 Z M 675 915.25 " clip-rule="nonzero"/></clipPath><clipPath id="a56e044d39"><path d="M 750 1046.5 L 675 915.25 L 825 915.25 Z M 750 1046.5 " clip-rule="nonzero"/></clipPath><clipPath id="989459020e"><path d="M 0 0.25 L 150 0.25 L 150 131.5 L 0 131.5 Z M 0 0.25 " clip-rule="nonzero"/></clipPath><clipPath id="ac30a2db6b"><path d="M 75 131.5 L 0 0.25 L 150 0.25 Z M 75 131.5 " clip-rule="nonzero"/></clipPath><clipPath id="b79425c855"><rect x="0" width="150" y="0" height="132"/></clipPath><clipPath id="c9749c3ff1"><path d="M 190.367188 461.609375 L 709.632812 461.609375 L 709.632812 980.875 L 190.367188 980.875 Z M 190.367188 461.609375 " clip-rule="nonzero"/></clipPath><clipPath id="25e680a7c5"><path d="M 450 461.609375 C 306.609375 461.609375 190.367188 577.851562 190.367188 721.242188 C 190.367188 864.632812 306.609375 980.875 450 980.875 C 593.390625 980.875 709.632812 864.632812 709.632812 721.242188 C 709.632812 577.851562 593.390625 461.609375 450 461.609375 Z M 450 461.609375 " clip-rule="nonzero"/></clipPath><clipPath id="7780d74fe7"><path d="M 0.367188 0.609375 L 519.632812 0.609375 L 519.632812 519.875 L 0.367188 519.875 Z M 0.367188 0.609375 " clip-rule="nonzero"/></clipPath><clipPath id="c23a1e4c9a"><path d="M 260 0.609375 C 116.609375 0.609375 0.367188 116.851562 0.367188 260.242188 C 0.367188 403.632812 116.609375 519.875 260 519.875 C 403.390625 519.875 519.632812 403.632812 519.632812 260.242188 C 519.632812 116.851562 403.390625 0.609375 260 0.609375 Z M 260 0.609375 " clip-rule="nonzero"/></clipPath><clipPath id="bf0896a083"><rect x="0" width="520" y="0" height="520"/></clipPath><clipPath id="359e2ba1ef"><path d="M 225 496.242188 L 675 496.242188 L 675 946.242188 L 225 946.242188 Z M 225 496.242188 " clip-rule="nonzero"/></clipPath><clipPath id="d3a8a69554"><path d="M 450 496.242188 C 325.734375 496.242188 225 596.980469 225 721.242188 C 225 845.507812 325.734375 946.242188 450 946.242188 C 574.265625 946.242188 675 845.507812 675 721.242188 C 675 596.980469 574.265625 496.242188 450 496.242188 Z M 450 496.242188 " clip-rule="nonzero"/></clipPath><clipPath id="1a9a18e978"><path d="M 0 0.242188 L 450 0.242188 L 450 450.242188 L 0 450.242188 Z M 0 0.242188 " clip-rule="nonzero"/></clipPath><clipPath id="ed3659b9f7"><path d="M 225 0.242188 C 100.734375 0.242188 0 100.980469 0 225.242188 C 0 349.507812 100.734375 450.242188 225 450.242188 C 349.265625 450.242188 450 349.507812 450 225.242188 C 450 100.980469 349.265625 0.242188 225 0.242188 Z M 225 0.242188 " clip-rule="nonzero"/></clipPath><clipPath id="b23c61aebe"><rect x="0" width="450" y="0" height="451"/></clipPath><clipPath id="a41be08185"><path d="M 709.632812 848.21875 L 723.269531 848.21875 L 723.269531 1046.5 L 709.632812 1046.5 Z M 709.632812 848.21875 " clip-rule="nonzero"/></clipPath><clipPath id="d047ed30f1"><path d="M 0.632812 0.21875 L 14.269531 0.21875 L 14.269531 198.5 L 0.632812 198.5 Z M 0.632812 0.21875 " clip-rule="nonzero"/></clipPath><clipPath id="202b394d89"><rect x="0" width="15" y="0" height="199"/></clipPath><clipPath id="ec93542d86"><path d="M 776.730469 848.21875 L 790.367188 848.21875 L 790.367188 1046.5 L 776.730469 1046.5 Z M 776.730469 848.21875 " clip-rule="nonzero"/></clipPath><clipPath id="999f9071e4"><path d="M 0.730469 0.21875 L 14.367188 0.21875 L 14.367188 198.5 L 0.730469 198.5 Z M 0.730469 0.21875 " clip-rule="nonzero"/></clipPath><clipPath id="03bd7616da"><rect x="0" width="15" y="0" height="199"/></clipPath><clipPath id="770589ac8d"><path d="M 743.183594 848.21875 L 756.816406 848.21875 L 756.816406 1046.5 L 743.183594 1046.5 Z M 743.183594 848.21875 " clip-rule="nonzero"/></clipPath><clipPath id="6a7a659650"><path d="M 0.183594 0.21875 L 13.816406 0.21875 L 13.816406 198.5 L 0.183594 198.5 Z M 0.183594 0.21875 " clip-rule="nonzero"/></clipPath><clipPath id="95112f71c3"><rect x="0" width="14" y="0" height="199"/></clipPath><clipPath id="906b47a60d"><path d="M 548.898438 672.867188 L 645.648438 672.867188 L 645.648438 769.617188 L 548.898438 769.617188 Z M 548.898438 672.867188 " clip-rule="nonzero"/></clipPath><clipPath id="bd86e16e42"><path d="M 597.273438 672.867188 C 570.554688 672.867188 548.898438 694.527344 548.898438 721.242188 C 548.898438 747.960938 570.554688 769.617188 597.273438 769.617188 C 623.988281 769.617188 645.648438 747.960938 645.648438 721.242188 C 645.648438 694.527344 623.988281 672.867188 597.273438 672.867188 Z M 597.273438 672.867188 " clip-rule="nonzero"/></clipPath><clipPath id="ebec80ef8f"><path d="M 0.898438 0.867188 L 97.648438 0.867188 L 97.648438 97.617188 L 0.898438 97.617188 Z M 0.898438 0.867188 " clip-rule="nonzero"/></clipPath><clipPath id="db7e56b78c"><path d="M 49.273438 0.867188 C 22.554688 0.867188 0.898438 22.527344 0.898438 49.242188 C 0.898438 75.960938 22.554688 97.617188 49.273438 97.617188 C 75.988281 97.617188 97.648438 75.960938 97.648438 49.242188 C 97.648438 22.527344 75.988281 0.867188 49.273438 0.867188 Z M 49.273438 0.867188 " clip-rule="nonzero"/></clipPath><clipPath id="ab1bde84f1"><rect x="0" width="98" y="0" height="98"/></clipPath><clipPath id="e11ebbec02"><path d="M 1154.351562 672.867188 L 1251.101562 672.867188 L 1251.101562 769.617188 L 1154.351562 769.617188 Z M 1154.351562 672.867188 " clip-rule="nonzero"/></clipPath><clipPath id="e3a00cf849"><path d="M 1202.726562 672.867188 C 1176.011719 672.867188 1154.351562 694.527344 1154.351562 721.242188 C 1154.351562 747.960938 1176.011719 769.617188 1202.726562 769.617188 C 1229.445312 769.617188 1251.101562 747.960938 1251.101562 721.242188 C 1251.101562 694.527344 1229.445312 672.867188 1202.726562 672.867188 Z M 1202.726562 672.867188 " clip-rule="nonzero"/></clipPath><clipPath id="4f2c254e05"><path d="M 0.351562 0.867188 L 97.101562 0.867188 L 97.101562 97.617188 L 0.351562 97.617188 Z M 0.351562 0.867188 " clip-rule="nonzero"/></clipPath><clipPath id="7a42196473"><path d="M 48.726562 0.867188 C 22.011719 0.867188 0.351562 22.527344 0.351562 49.242188 C 0.351562 75.960938 22.011719 97.617188 48.726562 97.617188 C 75.445312 97.617188 97.101562 75.960938 97.101562 49.242188 C 97.101562 22.527344 75.445312 0.867188 48.726562 0.867188 Z M 48.726562 0.867188 " clip-rule="nonzero"/></clipPath><clipPath id="d06d040baf"><rect x="0" width="98" y="0" height="98"/></clipPath></defs><rect x="-150" width="1800" fill="#ffffff" y="-149.999993" height="1799.99992" fill-opacity="1"/><rect x="-150" width="1800" fill="#ffffff" y="-149.999993" height="1799.99992" fill-opacity="1"/><g clip-path="url(#4c95cda185)"><g transform="matrix(1, 0, 0, 1, 150, 410)"><g clip-path="url(#eb13de058b)"><g clip-path="url(#61279064b0)"><path fill="#d45113" d="M 0 0.167969 L 1200.039062 0.167969 L 1200.039062 679.832031 L 0 679.832031 Z M 0 0.167969 " fill-opacity="1" fill-rule="nonzero"/></g></g></g></g><g clip-path="url(#518b286c19)"><g clip-path="url(#840fa368d0)"><g transform="matrix(1, 0, 0, 1, 790, 461)"><g clip-path="url(#491a57e28d)"><g clip-path="url(#4d34687f7f)"><g clip-path="url(#217c2be66a)"><path fill="#ffffff" d="M 0.367188 0.609375 L 519.632812 0.609375 L 519.632812 519.875 L 0.367188 519.875 Z M 0.367188 0.609375 " fill-opacity="1" fill-rule="nonzero"/></g></g></g></g></g></g><g clip-path="url(#6f63cc3eb4)"><g clip-path="url(#45e7613f3c)"><g transform="matrix(1, 0, 0, 1, 825, 496)"><g clip-path="url(#522be7ac00)"><g clip-path="url(#40899f174a)"><g clip-path="url(#f4aacff751)"><path fill="#ffffff" d="M 0 0.242188 L 450 0.242188 L 450 450.242188 L 0 450.242188 Z M 0 0.242188 " fill-opacity="1" fill-rule="nonzero"/></g></g></g></g></g></g><g clip-path="url(#987b6e22aa)"><g clip-path="url(#a56e044d39)"><g transform="matrix(1, 0, 0, 1, 675, 915)"><g clip-path="url(#b79425c855)"><g clip-path="url(#989459020e)"><g clip-path="url(#ac30a2db6b)"><path fill="#ffffff" d="M 150 131.5 L -0.21875 131.5 L -0.21875 0.25 L 150 0.25 Z M 150 131.5 " fill-opacity="1" fill-rule="nonzero"/></g></g></g></g></g></g><g clip-path="url(#c9749c3ff1)"><g clip-path="url(#25e680a7c5)"><g transform="matrix(1, 0, 0, 1, 190, 461)"><g clip-path="url(#bf0896a083)"><g clip-path="url(#7780d74fe7)"><g clip-path="url(#c23a1e4c9a)"><path fill="#ffffff" d="M 0.367188 0.609375 L 519.632812 0.609375 L 519.632812 519.875 L 0.367188 519.875 Z M 0.367188 0.609375 " fill-opacity="1" fill-rule="nonzero"/></g></g></g></g></g></g><g clip-path="url(#359e2ba1ef)"><g clip-path="url(#d3a8a69554)"><g transform="matrix(1, 0, 0, 1, 225, 496)"><g clip-path="url(#b23c61aebe)"><g clip-path="url(#1a9a18e978)"><g clip-path="url(#ed3659b9f7)"><path fill="#ffffff" d="M 0 0.242188 L 450 0.242188 L 450 450.242188 L 0 450.242188 Z M 0 0.242188 " fill-opacity="1" fill-rule="nonzero"/></g></g></g></g></g></g><g clip-path="url(#a41be08185)"><g transform="matrix(1, 0, 0, 1, 709, 848)"><g clip-path="url(#202b394d89)"><g clip-path="url(#d047ed30f1)"><path fill="#d45113" d="M 0.632812 0.21875 L 14.269531 0.21875 L 14.269531 198.480469 L 0.632812 198.480469 Z M 0.632812 0.21875 " fill-opacity="1" fill-rule="nonzero"/></g></g></g></g><g clip-path="url(#ec93542d86)"><g transform="matrix(1, 0, 0, 1, 776, 848)"><g clip-path="url(#03bd7616da)"><g clip-path="url(#999f9071e4)"><path fill="#d45113" d="M 0.730469 0.21875 L 14.367188 0.21875 L 14.367188 198.480469 L 0.730469 198.480469 Z M 0.730469 0.21875 " fill-opacity="1" fill-rule="nonzero"/></g></g></g></g><g clip-path="url(#770589ac8d)"><g transform="matrix(1, 0, 0, 1, 743, 848)"><g clip-path="url(#95112f71c3)"><g clip-path="url(#6a7a659650)"><path fill="#d45113" d="M 0.183594 0.21875 L 13.816406 0.21875 L 13.816406 198.480469 L 0.183594 198.480469 Z M 0.183594 0.21875 " fill-opacity="1" fill-rule="nonzero"/></g></g></g></g><g clip-path="url(#906b47a60d)"><g clip-path="url(#bd86e16e42)"><g transform="matrix(1, 0, 0, 1, 548, 672)"><g clip-path="url(#ab1bde84f1)"><g clip-path="url(#ebec80ef8f)"><g clip-path="url(#db7e56b78c)"><path fill="#d45113" d="M 0.898438 0.867188 L 97.648438 0.867188 L 97.648438 97.617188 L 0.898438 97.617188 Z M 0.898438 0.867188 " fill-opacity="1" fill-rule="nonzero"/></g></g></g></g></g></g><g clip-path="url(#e11ebbec02)"><g clip-path="url(#e3a00cf849)"><g transform="matrix(1, 0, 0, 1, 1154, 672)"><g clip-path="url(#d06d040baf)"><g clip-path="url(#4f2c254e05)"><g clip-path="url(#7a42196473)"><path fill="#d45113" d="M 0.351562 0.867188 L 97.101562 0.867188 L 97.101562 97.617188 L 0.351562 97.617188 Z M 0.351562 0.867188 " fill-opacity="1" fill-rule="nonzero"/></g></g></g></g></g></g></svg>