<svg preserveAspectRatio="none" width="100%" height="100%" overflow="visible" style="display: block;" viewBox="0 0 55.26 53" fill="none" xmlns="http://www.w3.org/2000/svg">
<g id="Group 13">
<path id="Path 49" d="M27.6287 53C24.002 53.0016 20.4106 52.318 17.0595 50.9883C13.7083 49.6586 10.663 47.7088 8.0974 45.2503C5.53184 42.7918 3.49627 39.8727 2.10692 36.6596C0.717562 33.4466 0.00163234 30.0025 0 26.5241V26.5002C0 26.4446 8.76876e-06 26.3863 0.00323211 26.3306C0.0380653 21.0968 1.68802 15.9901 4.74499 11.6545C7.80197 7.31896 12.129 3.94877 17.1805 1.96898C22.2319 -0.0108158 27.7815 -0.511537 33.1293 0.529986C38.477 1.57151 43.3835 4.10863 47.2298 7.82133C51.0761 11.534 53.69 16.256 54.7419 21.3918C55.7937 26.5276 55.2364 31.8471 53.1401 36.6795C51.0439 41.5118 47.5027 45.6406 42.9631 48.545C38.4235 51.4494 33.0888 52.9994 27.6319 52.9996H27.6287V53ZM27.6287 0.557832C20.4881 0.573324 13.6424 3.29081 8.57898 8.11984C3.51552 12.9489 0.643398 19.4993 0.586642 26.3479C0.583419 26.407 0.583438 26.4556 0.583438 26.4998C0.583074 31.631 2.1691 36.647 5.14097 40.9136C8.11284 45.1803 12.3371 48.5058 17.2795 50.4697C22.2219 52.4337 27.6605 52.9478 32.9075 51.9471C38.1546 50.9464 42.9744 48.4758 46.7575 44.8478C50.5406 41.2197 53.1171 36.5972 54.1612 31.5646C55.2052 26.5321 54.6699 21.3157 52.623 16.575C50.5761 11.8342 47.1094 7.78214 42.6614 4.93111C38.2135 2.08009 32.984 0.558182 27.6342 0.557832H27.6287V0.557832Z" fill="var(--fill-0, white)"/>
<path id="Ellipse 188" d="M30.5458 13.5589C32.4203 13.5589 33.9398 12.1677 33.9398 10.4517C33.9398 8.73557 32.4203 7.34441 30.5458 7.34441C28.6714 7.34441 27.1519 8.73557 27.1519 10.4517C27.1519 12.1677 28.6714 13.5589 30.5458 13.5589Z" fill="var(--fill-0, white)"/>
<path id="Path 969" d="M27.7074 12.0238C27.2735 11.6546 26.9522 11.1892 26.775 10.673C26.5979 10.1569 26.5708 9.60768 26.6966 9.07917C26.8223 8.55066 27.0966 8.06091 27.4925 7.65781C27.8884 7.25471 28.3924 6.95206 28.9553 6.77946C28.4838 6.84218 28.0319 6.99365 27.6283 7.22418C27.2246 7.45472 26.8782 7.75928 26.611 8.11845C26.3437 8.47763 26.1616 8.88355 26.0762 9.31035C25.9908 9.73715 26.004 10.1755 26.1149 10.5974C26.2258 11.0193 26.432 11.4155 26.7204 11.7609C27.0087 12.1062 27.373 12.3931 27.7898 12.6032C28.2067 12.8133 28.6671 12.942 29.1416 12.9812C29.6161 13.0204 30.0944 12.9691 30.5459 12.8307C30.0366 12.8992 29.5168 12.8622 29.0253 12.7225C28.5337 12.5827 28.0832 12.3438 27.7071 12.0236L27.7074 12.0238Z" fill="var(--fill-0, white)"/>
<path id="Ellipse 189" d="M30.5459 31.0725C35.8568 31.0725 40.1622 26.899 40.1622 21.7508C40.1622 16.6025 35.8568 12.429 30.5459 12.429C25.2349 12.429 20.9296 16.6025 20.9296 21.7508C20.9296 26.899 25.2349 31.0725 30.5459 31.0725Z" fill="var(--fill-0, white)"/>
<path id="Path 970" d="M22.2005 16.6595C23.8711 14.8058 26.2062 13.665 28.7131 13.4779C31.22 13.2907 33.7026 14.0718 35.6368 15.6564C35.5578 15.5819 35.4787 15.507 35.3969 15.4349C33.4817 13.742 30.9634 12.8692 28.3959 13.0084C25.8285 13.1475 23.4222 14.2873 21.7065 16.1769C19.9907 18.0666 19.1061 20.5513 19.2472 23.0844C19.3882 25.6176 20.5434 27.9918 22.4586 29.6846C22.477 29.7008 22.4955 29.717 22.514 29.7332C22.5962 29.8053 22.6808 29.8736 22.765 29.9426C20.9435 28.2329 19.8665 25.8919 19.7613 23.4136C19.656 20.9353 20.5308 18.5136 22.2009 16.6595H22.2005Z" fill="var(--fill-0, white)"/>
<path id="Ellipse 190" d="M30.5459 31.0725C33.9824 31.0725 36.7682 28.4166 36.7682 25.1405C36.7682 21.8643 33.9824 19.2085 30.5459 19.2085C27.1094 19.2085 24.3236 21.8643 24.3236 25.1405C24.3236 28.4166 27.1094 31.0725 30.5459 31.0725Z" fill="var(--fill-0, white)"/>
<path id="Vector" d="M41.8592 40.9544V42.9939C41.4772 43.2325 41.0914 43.4557 40.6977 43.6673C40.5402 43.7519 40.3828 43.8328 40.2254 43.9136L40.1308 43.9598C39.9339 44.056 39.7409 44.156 39.5402 44.2483C39.5364 44.2522 39.5283 44.2522 39.5245 44.256C38.6333 44.6727 37.7138 45.0289 36.7724 45.3219C36.7686 45.3219 36.7648 45.3258 36.7607 45.3258C35.2707 45.7865 33.7343 46.0897 32.1781 46.2301C31.497 46.2955 30.808 46.3263 30.1112 46.3263C28.2012 46.3268 26.2994 46.0836 24.4539 45.6028C23.5124 45.3609 22.589 45.0562 21.6901 44.6909C21.6823 44.687 21.6782 44.687 21.6703 44.6832C21.5798 44.6447 21.4814 44.6062 21.3908 44.5677C20.946 44.3792 20.5129 44.1752 20.0877 43.9598L19.9027 43.8674C19.4498 43.6327 19.005 43.3864 18.5681 43.1209L18.5444 43.1093C17.8715 42.6995 17.2223 42.2538 16.5996 41.7741C16.2807 41.5355 15.9737 41.2854 15.6744 41.0237C15.5169 40.8929 15.3595 40.7543 15.2099 40.6197C14.6347 40.1004 14.0892 39.5506 13.5759 38.9727C13.644 38.5719 13.7441 38.1769 13.8752 37.7914L13.8791 37.7875C13.9026 37.7218 13.9302 37.6575 13.9617 37.5951C13.9835 37.5399 14.0084 37.4859 14.0365 37.4335C14.7413 36.1444 16.0169 35.825 17.5996 35.7558C18.4933 35.7173 19.4814 35.7596 20.5248 35.748C21.0759 35.7442 21.6467 35.725 22.2176 35.6749C25.8199 35.3556 25.1665 33.2776 25.3278 32.1578C25.4893 31.0727 26.4893 32.0116 26.5562 32.0732L26.56 32.077C28.5985 33.0095 30.8539 33.3959 33.0954 33.1968C33.4812 33.1506 33.867 33.1237 34.2529 33.1122C35.2686 33.1006 35.0481 33.3854 34.6979 33.6201C34.5278 33.7295 34.3502 33.8272 34.1664 33.9126C34.1664 33.9126 34.0049 34.8746 33.8396 36.3137C33.6821 37.6913 38.6466 38.1685 39.6191 38.4686H39.6229C40.178 38.6681 40.6733 39 41.0638 39.4341C41.4543 39.8682 41.7277 40.3908 41.8592 40.9544V40.9544Z" fill="var(--fill-0, white)"/>
<path id="Ellipse 191" d="M24.3236 24.858C24.636 24.858 24.8893 24.3521 24.8893 23.7281C24.8893 23.1041 24.636 22.5982 24.3236 22.5982C24.0112 22.5982 23.7579 23.1041 23.7579 23.7281C23.7579 24.3521 24.0112 24.858 24.3236 24.858Z" fill="var(--fill-0, white)"/>
<path id="Ellipse 192" d="M36.7682 24.858C37.0806 24.858 37.3338 24.3521 37.3338 23.7281C37.3338 23.1041 37.0806 22.5982 36.7682 22.5982C36.4558 22.5982 36.2025 23.1041 36.2025 23.7281C36.2025 24.3521 36.4558 24.858 36.7682 24.858Z" fill="var(--fill-0, white)"/>
<path id="Vector_2" d="M37.2649 20.5337C37.0319 19.7968 36.5126 19.1811 35.8207 18.8219C35.1342 18.47 34.4009 18.2154 33.6425 18.0655C32.3166 17.6887 30.9426 17.503 29.563 17.5141C28.1872 17.5808 26.7807 18.0499 25.846 19.0493C24.9113 20.0487 24.5648 21.6354 25.2456 22.8181L25.1703 23.1238C26.2618 23.2521 27.3674 23.065 28.3534 22.5853C29.3394 22.1056 30.1634 21.3539 30.7258 20.4211C31.2418 21.226 31.9747 21.873 32.8423 22.2893C33.7098 22.7057 34.6777 22.875 35.6373 22.7782C35.9436 22.7538 36.2418 22.6691 36.5144 22.529C36.8377 22.3182 37.0847 22.0112 37.2196 21.6525C37.3546 21.2938 37.3704 20.902 37.2649 20.5337V20.5337Z" fill="var(--fill-0, white)"/>
</g>
</svg>
