<svg preserveAspectRatio="none" width="100%" height="100%" overflow="visible" style="display: block;" viewBox="0 0 55.26 53" fill="none" xmlns="http://www.w3.org/2000/svg">
<g id="Group 10">
<path id="Path 46" d="M27.6287 53C24.002 53.0016 20.4106 52.318 17.0595 50.9883C13.7083 49.6586 10.663 47.7088 8.0974 45.2503C5.53184 42.7918 3.49627 39.8727 2.10692 36.6596C0.717562 33.4466 0.00163234 30.0025 0 26.5241V26.5002C0 26.4446 8.76876e-06 26.3863 0.00323211 26.3306C0.0380653 21.0968 1.68802 15.9901 4.74499 11.6545C7.80197 7.31896 12.129 3.94877 17.1805 1.96898C22.2319 -0.0108158 27.7815 -0.511537 33.1293 0.529986C38.477 1.57151 43.3835 4.10863 47.2298 7.82133C51.0761 11.534 53.69 16.256 54.7419 21.3918C55.7937 26.5276 55.2364 31.8471 53.1401 36.6795C51.0439 41.5118 47.5027 45.6406 42.9631 48.545C38.4235 51.4494 33.0888 52.9994 27.6319 52.9996H27.6287V53ZM27.6287 0.557832C20.4881 0.573324 13.6424 3.29081 8.57898 8.11984C3.51552 12.9489 0.643398 19.4993 0.586642 26.3479C0.583419 26.407 0.583438 26.4556 0.583438 26.4998C0.583074 31.631 2.1691 36.647 5.14097 40.9136C8.11284 45.1803 12.3371 48.5058 17.2795 50.4697C22.2219 52.4337 27.6605 52.9478 32.9075 51.9471C38.1546 50.9464 42.9744 48.4758 46.7575 44.8478C50.5406 41.2197 53.1171 36.5972 54.1612 31.5646C55.2052 26.5321 54.6699 21.3157 52.623 16.575C50.5761 11.8342 47.1094 7.78214 42.6614 4.93111C38.2135 2.08009 32.984 0.558182 27.6342 0.557832H27.6287V0.557832Z" fill="var(--fill-0, white)"/>
<g id="Group 8">
<rect id="Rectangle 23" x="11.3132" y="17.9764" width="23.5065" height="27.785" rx="5" fill="var(--fill-0, white)"/>
<path id="Path 337" d="M30.7064 23.932H24.0529C23.9829 23.9321 23.9136 23.919 23.8489 23.8937C23.7843 23.8683 23.7255 23.831 23.676 23.784C23.6265 23.737 23.5872 23.6812 23.5604 23.6197C23.5336 23.5583 23.5198 23.4924 23.5198 23.4259C23.5198 23.3593 23.5336 23.2935 23.5604 23.232C23.5872 23.1706 23.6265 23.1147 23.676 23.0677C23.7255 23.0207 23.7843 22.9835 23.8489 22.9581C23.9136 22.9327 23.9829 22.9197 24.0529 22.9198H30.7064C30.7764 22.9197 30.8457 22.9327 30.9103 22.9581C30.975 22.9835 31.0338 23.0207 31.0833 23.0677C31.1328 23.1147 31.1721 23.1706 31.1989 23.232C31.2257 23.2935 31.2395 23.3593 31.2395 23.4259C31.2395 23.4924 31.2257 23.5583 31.1989 23.6197C31.1721 23.6812 31.1328 23.737 31.0833 23.784C31.0338 23.831 30.975 23.8683 30.9103 23.8937C30.8457 23.919 30.7764 23.9321 30.7064 23.932Z" fill="var(--fill-0, #003049)"/>
<path id="Path 338" d="M30.7064 26.5888H24.0529C23.9829 26.5889 23.9136 26.5759 23.8489 26.5505C23.7843 26.5251 23.7255 26.4879 23.676 26.4409C23.6265 26.3938 23.5872 26.338 23.5604 26.2766C23.5336 26.2151 23.5198 26.1492 23.5198 26.0827C23.5198 26.0162 23.5336 25.9503 23.5604 25.8889C23.5872 25.8274 23.6265 25.7716 23.676 25.7246C23.7255 25.6776 23.7843 25.6403 23.8489 25.6149C23.9136 25.5895 23.9829 25.5765 24.0529 25.5766H30.7064C30.7764 25.5765 30.8457 25.5895 30.9103 25.6149C30.975 25.6403 31.0338 25.6776 31.0833 25.7246C31.1328 25.7716 31.1721 25.8274 31.1989 25.8889C31.2257 25.9503 31.2395 26.0162 31.2395 26.0827C31.2395 26.1492 31.2257 26.2151 31.1989 26.2766C31.1721 26.338 31.1328 26.3938 31.0833 26.4409C31.0338 26.4879 30.975 26.5251 30.9103 26.5505C30.8457 26.5759 30.7764 26.5889 30.7064 26.5888Z" fill="var(--fill-0, #003049)"/>
<path id="Path 339" d="M20.6392 28.1016H15.7768C15.6181 28.1014 15.4658 28.0414 15.3536 27.9346C15.2413 27.8279 15.1781 27.6832 15.178 27.5322V22.0769C15.1781 21.9259 15.2413 21.7812 15.3536 21.6744C15.4658 21.5677 15.6181 21.5077 15.7768 21.5075H20.6392C20.7979 21.5077 20.9502 21.5677 21.0624 21.6744C21.1747 21.7812 21.2378 21.9259 21.238 22.0769V27.5322C21.2378 27.6832 21.1747 27.8279 21.0624 27.9346C20.9502 28.0414 20.7979 28.1014 20.6392 28.1016V28.1016Z" fill="var(--fill-0, #003049)"/>
<path id="Path 340" d="M30.6603 32.029H15.6235C15.4823 32.029 15.3469 31.9757 15.2471 31.8808C15.1473 31.7859 15.0912 31.6571 15.0912 31.5229C15.0912 31.3887 15.1473 31.26 15.2471 31.1651C15.3469 31.0702 15.4823 31.0168 15.6235 31.0168H30.6603C30.8015 31.0168 30.9369 31.0702 31.0367 31.1651C31.1365 31.26 31.1926 31.3887 31.1926 31.5229C31.1926 31.6571 31.1365 31.7859 31.0367 31.8808C30.9369 31.9757 30.8015 32.029 30.6603 32.029V32.029Z" fill="var(--fill-0, #003049)"/>
<path id="Path 341" d="M30.6602 34.6858H15.6234C15.4824 34.6856 15.3472 34.6322 15.2475 34.5373C15.1479 34.4424 15.0919 34.3138 15.0919 34.1797C15.0919 34.0456 15.1479 33.917 15.2475 33.8221C15.3472 33.7273 15.4824 33.6738 15.6234 33.6736H30.6602C30.7302 33.6735 30.7995 33.6865 30.8642 33.7119C30.9288 33.7373 30.9876 33.7746 31.0371 33.8216C31.0866 33.8686 31.1259 33.9244 31.1527 33.9859C31.1795 34.0473 31.1933 34.1132 31.1933 34.1797C31.1933 34.2462 31.1795 34.3121 31.1527 34.3736C31.1259 34.435 31.0866 34.4908 31.0371 34.5379C30.9876 34.5849 30.9288 34.6221 30.8642 34.6475C30.7995 34.6729 30.7302 34.6859 30.6602 34.6858Z" fill="var(--fill-0, #003049)"/>
<path id="Path 342" d="M30.6602 37.3426H15.6234C15.4824 37.3424 15.3472 37.289 15.2475 37.1941C15.1479 37.0992 15.0919 36.9706 15.0919 36.8365C15.0919 36.7024 15.1479 36.5738 15.2475 36.479C15.3472 36.3841 15.4824 36.3307 15.6234 36.3304H30.6602C30.7302 36.3303 30.7995 36.3434 30.8642 36.3687C30.9288 36.3941 30.9876 36.4314 31.0371 36.4784C31.0866 36.5254 31.1259 36.5812 31.1527 36.6427C31.1795 36.7041 31.1933 36.77 31.1933 36.8365C31.1933 36.9031 31.1795 36.9689 31.1527 37.0304C31.1259 37.0918 31.0866 37.1477 31.0371 37.1947C30.9876 37.2417 30.9288 37.2789 30.8642 37.3043C30.7995 37.3297 30.7302 37.3427 30.6602 37.3426Z" fill="var(--fill-0, #003049)"/>
<path id="Path 343" d="M30.6602 39.9994H15.6234C15.4824 39.9992 15.3472 39.9458 15.2475 39.8509C15.1479 39.756 15.0919 39.6274 15.0919 39.4933C15.0919 39.3593 15.1479 39.2306 15.2475 39.1358C15.3472 39.0409 15.4824 38.9875 15.6234 38.9873H30.6602C30.7302 38.9872 30.7995 39.0002 30.8642 39.0256C30.9288 39.0509 30.9876 39.0882 31.0371 39.1352C31.0866 39.1822 31.1259 39.238 31.1527 39.2995C31.1795 39.3609 31.1933 39.4268 31.1933 39.4933C31.1933 39.5599 31.1795 39.6257 31.1527 39.6872C31.1259 39.7486 31.0866 39.8045 31.0371 39.8515C30.9876 39.8985 30.9288 39.9357 30.8642 39.9611C30.7995 39.9865 30.7302 39.9995 30.6602 39.9994V39.9994Z" fill="var(--fill-0, #003049)"/>
<path id="Path 344" d="M30.6602 42.6563H15.6234C15.4824 42.6561 15.3472 42.6026 15.2475 42.5078C15.1479 42.4129 15.0919 42.2843 15.0919 42.1502C15.0919 42.0161 15.1479 41.8875 15.2475 41.7926C15.3472 41.6977 15.4824 41.6443 15.6234 41.6441H30.6602C30.7302 41.644 30.7995 41.657 30.8642 41.6824C30.9288 41.7078 30.9876 41.745 31.0371 41.792C31.0866 41.8391 31.1259 41.8949 31.1527 41.9563C31.1795 42.0178 31.1933 42.0837 31.1933 42.1502C31.1933 42.2167 31.1795 42.2826 31.1527 42.344C31.1259 42.4055 31.0866 42.4613 31.0371 42.5083C30.9876 42.5553 30.9288 42.5926 30.8642 42.618C30.7995 42.6433 30.7302 42.6564 30.6602 42.6563Z" fill="var(--fill-0, #003049)"/>
<path id="Ellipse 44" d="M35.9587 9.40937C39.4111 9.40937 42.0788 12.0521 42.0788 15.1545C42.0787 18.2568 39.4111 20.8996 35.9587 20.8996C32.5064 20.8995 29.8387 18.2567 29.8386 15.1545C29.8386 12.0522 32.5064 9.40944 35.9587 9.40937Z" fill="var(--fill-0, white)" stroke="var(--stroke-0, white)" stroke-width="3"/>
<path id="Vector" d="M35.8113 20.1412C36.3065 20.1412 36.7079 19.7595 36.7079 19.2887C36.7079 18.8179 36.3065 18.4362 35.8113 18.4362C35.3161 18.4362 34.9147 18.8179 34.9147 19.2887C34.9147 19.7595 35.3161 20.1412 35.8113 20.1412Z" fill="var(--fill-0, #003049)"/>
<path id="Vector_2" d="M35.7152 10.3933C35.0393 10.3997 34.3927 10.6566 33.9129 11.1094C33.4332 11.5621 33.1583 12.175 33.1466 12.8176C33.1464 12.8299 33.1464 12.9164 33.1464 13.0295C33.1464 13.1954 33.2157 13.3544 33.339 13.4717C33.4624 13.589 33.6297 13.6549 33.8041 13.6549V13.6549C33.9787 13.6549 34.1461 13.5889 34.2695 13.4715C34.3929 13.3541 34.4622 13.1949 34.4622 13.029V13.0286C34.4621 12.9516 34.4621 12.8984 34.4621 12.8951C34.462 12.6892 34.5184 12.4868 34.6255 12.3079C34.7327 12.129 34.887 11.9797 35.0733 11.8747C35.2595 11.7696 35.4713 11.7125 35.6879 11.7089C35.9044 11.7054 36.1182 11.7554 36.3082 11.8542C36.4982 11.953 36.6578 12.0971 36.7715 12.2724C36.8851 12.4476 36.9488 12.648 36.9563 12.8538C36.9638 13.0596 36.9149 13.2636 36.8142 13.4459C36.7136 13.6283 36.5648 13.7825 36.3824 13.8936L36.3827 13.8939C36.3827 13.8939 35.4465 14.4669 35.1611 15.2529L35.1613 15.253C35.1111 15.414 35.0857 15.5811 35.0858 15.749C35.0858 15.8181 35.0901 16.4222 35.0984 16.9125C35.1012 17.0816 35.174 17.2429 35.3008 17.3616C35.4277 17.4802 35.5985 17.5467 35.7765 17.5467V17.5467C35.8656 17.5467 35.9537 17.53 36.036 17.4976C36.1183 17.4652 36.1931 17.4177 36.2561 17.3578C36.3191 17.2979 36.369 17.2268 36.4031 17.1486C36.4372 17.0703 36.4547 16.9865 36.4547 16.9018L36.4547 16.8978C36.4518 16.4488 36.4503 15.926 36.4503 15.888C36.4503 15.4054 36.94 14.9245 37.3423 14.6108C37.808 14.2523 38.1353 13.7569 38.2728 13.2024C38.3024 13.0881 38.3188 12.9711 38.3215 12.8534C38.3215 12.5303 38.2546 12.2104 38.1246 11.9119C37.9945 11.6134 37.8039 11.3422 37.5636 11.1138C37.3234 10.8854 37.0381 10.7041 36.7242 10.5805C36.4102 10.4569 36.0737 10.3932 35.7339 10.3932C35.7277 10.3932 35.7215 10.3933 35.7152 10.3933Z" fill="var(--fill-0, #003049)"/>
</g>
</g>
</svg>
