<svg preserveAspectRatio="none" width="100%" height="100%" overflow="visible" style="display: block;" viewBox="0 0 55.26 53" fill="none" xmlns="http://www.w3.org/2000/svg">
<g id="Group 9">
<path id="Path 45" d="M27.6287 53C24.002 53.0016 20.4106 52.318 17.0595 50.9883C13.7083 49.6586 10.663 47.7088 8.0974 45.2503C5.53184 42.7918 3.49627 39.8727 2.10692 36.6596C0.717562 33.4466 0.00163234 30.0025 0 26.5241V26.5002C0 26.4446 8.76876e-06 26.3863 0.00323211 26.3306C0.0380653 21.0968 1.68802 15.9901 4.74499 11.6545C7.80197 7.31896 12.129 3.94877 17.1805 1.96898C22.2319 -0.0108158 27.7815 -0.511537 33.1293 0.529986C38.477 1.57151 43.3835 4.10863 47.2298 7.82133C51.0761 11.534 53.69 16.256 54.7419 21.3918C55.7937 26.5276 55.2364 31.8471 53.1401 36.6795C51.0439 41.5118 47.5027 45.6406 42.9631 48.545C38.4235 51.4494 33.0888 52.9994 27.6319 52.9996H27.6287V53ZM27.6287 0.557832C20.4881 0.573324 13.6424 3.29081 8.57898 8.11984C3.51552 12.9489 0.643398 19.4993 0.586642 26.3479C0.583419 26.407 0.583438 26.4556 0.583438 26.4998C0.583074 31.631 2.1691 36.647 5.14097 40.9136C8.11284 45.1803 12.3371 48.5058 17.2795 50.4697C22.2219 52.4337 27.6605 52.9478 32.9075 51.9471C38.1546 50.9464 42.9744 48.4758 46.7575 44.8478C50.5406 41.2197 53.1171 36.5972 54.1612 31.5646C55.2052 26.5321 54.6699 21.3157 52.623 16.575C50.5761 11.8342 47.1094 7.78214 42.6614 4.93111C38.2135 2.08009 32.984 0.558182 27.6342 0.557832H27.6287V0.557832Z" fill="var(--fill-0, white)"/>
<path id="Vector" d="M29.6606 34.1626C29.9149 34.1626 30.121 33.9649 30.121 33.721C30.121 33.477 29.9149 33.2793 29.6606 33.2793C29.4062 33.2793 29.2001 33.477 29.2001 33.721C29.2001 33.9649 29.4062 34.1626 29.6606 34.1626Z" fill="var(--fill-0, white)"/>
<path id="Vector_2" d="M39.9321 25.7366L27.9402 15.1195C27.8552 15.0442 27.7436 15.0024 27.6278 15.0024C27.5121 15.0024 27.4006 15.0443 27.3155 15.1196L21.8325 19.9757V17.8211C21.8325 17.704 21.7839 17.5916 21.6976 17.5088C21.6112 17.426 21.4941 17.3794 21.372 17.3794H20.451C20.3289 17.3794 20.2118 17.426 20.1254 17.5088C20.039 17.5916 19.9905 17.704 19.9905 17.8211V21.607L15.3278 25.7367C15.2597 25.797 15.2122 25.8755 15.1914 25.9621C15.1706 26.0487 15.1776 26.1393 15.2113 26.222C15.2451 26.3048 15.304 26.3758 15.3805 26.4259C15.457 26.476 15.5475 26.5028 15.6402 26.5028H17.9486C18.0707 26.5028 18.1878 26.5494 18.2742 26.6322C18.3605 26.715 18.4091 26.8274 18.4091 26.9445V37.7167C18.4091 37.8338 18.4576 37.9461 18.5439 38.029C18.6303 38.1118 18.7474 38.1583 18.8695 38.1583H36.3861C36.5082 38.1583 36.6253 38.1118 36.7117 38.029C36.7981 37.9461 36.8466 37.8338 36.8466 37.7167V26.9445C36.8466 26.8274 36.8951 26.715 36.9815 26.6322C37.0678 26.5494 37.1849 26.5028 37.3071 26.5028H39.6197C39.7124 26.5028 39.8029 26.476 39.8794 26.4259C39.9559 26.3758 40.0149 26.3048 40.0486 26.222C40.0824 26.1392 40.0893 26.0486 40.0685 25.9621C40.0477 25.8755 40.0001 25.7969 39.9321 25.7366V25.7366ZM25.0491 30.3851H30.2065C30.3286 30.3851 30.4457 30.4316 30.5321 30.5145C30.6185 30.5973 30.667 30.7096 30.667 30.8268V37.275H24.5887V30.8268C24.5887 30.7096 24.6372 30.5973 24.7235 30.5145C24.8099 30.4316 24.927 30.3851 25.0491 30.3851Z" fill="var(--fill-0, white)"/>
</g>
</svg>
