<svg xmlns="http://www.w3.org/2000/svg" xmlns:xlink="http://www.w3.org/1999/xlink" width="2000" zoomAndPan="magnify" viewBox="0 0 1500 1499.999933" height="2000" preserveAspectRatio="xMidYMid meet" version="1.0"><defs><clipPath id="538a18bd50"><path d="M 150 502.617188 L 1350 502.617188 L 1350 1182.285156 L 150 1182.285156 Z M 150 502.617188 " clip-rule="nonzero"/></clipPath><clipPath id="e7b12d06fb"><path d="M 0 0.617188 L 1200 0.617188 L 1200 680.285156 L 0 680.285156 Z M 0 0.617188 " clip-rule="nonzero"/></clipPath><clipPath id="017f905327"><rect x="0" width="1200" y="0" height="681"/></clipPath><clipPath id="1f08c30d92"><path d="M 450 349.652344 L 1050 349.652344 L 1050 534.554688 L 450 534.554688 Z M 450 349.652344 " clip-rule="nonzero"/></clipPath><clipPath id="013c6dcf46"><path d="M 0 0.652344 L 600 0.652344 L 600 185.554688 L 0 185.554688 Z M 0 0.652344 " clip-rule="nonzero"/></clipPath><clipPath id="f5bc310c4b"><rect x="0" width="600" y="0" height="186"/></clipPath><clipPath id="7523167661"><path d="M 790.367188 554.058594 L 1309.632812 554.058594 L 1309.632812 1073.328125 L 790.367188 1073.328125 Z M 790.367188 554.058594 " clip-rule="nonzero"/></clipPath><clipPath id="ebd90ad67a"><path d="M 1050 554.058594 C 906.609375 554.058594 790.367188 670.300781 790.367188 813.695312 C 790.367188 957.085938 906.609375 1073.328125 1050 1073.328125 C 1193.390625 1073.328125 1309.632812 957.085938 1309.632812 813.695312 C 1309.632812 670.300781 1193.390625 554.058594 1050 554.058594 Z M 1050 554.058594 " clip-rule="nonzero"/></clipPath><clipPath id="9bc8a65713"><path d="M 0.367188 0.0585938 L 519.632812 0.0585938 L 519.632812 519.328125 L 0.367188 519.328125 Z M 0.367188 0.0585938 " clip-rule="nonzero"/></clipPath><clipPath id="4ce003ca0e"><path d="M 260 0.0585938 C 116.609375 0.0585938 0.367188 116.300781 0.367188 259.695312 C 0.367188 403.085938 116.609375 519.328125 260 519.328125 C 403.390625 519.328125 519.632812 403.085938 519.632812 259.695312 C 519.632812 116.300781 403.390625 0.0585938 260 0.0585938 Z M 260 0.0585938 " clip-rule="nonzero"/></clipPath><clipPath id="c348846e32"><rect x="0" width="520" y="0" height="520"/></clipPath><clipPath id="6d2bd6212a"><path d="M 825 588.695312 L 1275 588.695312 L 1275 1038.695312 L 825 1038.695312 Z M 825 588.695312 " clip-rule="nonzero"/></clipPath><clipPath id="423d6da968"><path d="M 1050 588.695312 C 925.734375 588.695312 825 689.429688 825 813.695312 C 825 937.957031 925.734375 1038.695312 1050 1038.695312 C 1174.265625 1038.695312 1275 937.957031 1275 813.695312 C 1275 689.429688 1174.265625 588.695312 1050 588.695312 Z M 1050 588.695312 " clip-rule="nonzero"/></clipPath><clipPath id="b5f7d3c314"><path d="M 0 0.695312 L 450 0.695312 L 450 450.695312 L 0 450.695312 Z M 0 0.695312 " clip-rule="nonzero"/></clipPath><clipPath id="b20d667361"><path d="M 225 0.695312 C 100.734375 0.695312 0 101.429688 0 225.695312 C 0 349.957031 100.734375 450.695312 225 450.695312 C 349.265625 450.695312 450 349.957031 450 225.695312 C 450 101.429688 349.265625 0.695312 225 0.695312 Z M 225 0.695312 " clip-rule="nonzero"/></clipPath><clipPath id="ffa79b2c50"><rect x="0" width="450" y="0" height="451"/></clipPath><clipPath id="9cb22ec338"><path d="M 675 1038.695312 L 825 1038.695312 L 825 1169.945312 L 675 1169.945312 Z M 675 1038.695312 " clip-rule="nonzero"/></clipPath><clipPath id="8db126622c"><path d="M 750 1169.945312 L 675 1038.695312 L 825 1038.695312 Z M 750 1169.945312 " clip-rule="nonzero"/></clipPath><clipPath id="3cd194c1c4"><path d="M 0 0.695312 L 150 0.695312 L 150 131.945312 L 0 131.945312 Z M 0 0.695312 " clip-rule="nonzero"/></clipPath><clipPath id="8daaac6d6b"><path d="M 75 131.945312 L 0 0.695312 L 150 0.695312 Z M 75 131.945312 " clip-rule="nonzero"/></clipPath><clipPath id="af3cf9e3e4"><rect x="0" width="150" y="0" height="132"/></clipPath><clipPath id="5af9bc647e"><path d="M 190.367188 554.058594 L 709.632812 554.058594 L 709.632812 1073.328125 L 190.367188 1073.328125 Z M 190.367188 554.058594 " clip-rule="nonzero"/></clipPath><clipPath id="2b28720431"><path d="M 450 554.058594 C 306.609375 554.058594 190.367188 670.300781 190.367188 813.695312 C 190.367188 957.085938 306.609375 1073.328125 450 1073.328125 C 593.390625 1073.328125 709.632812 957.085938 709.632812 813.695312 C 709.632812 670.300781 593.390625 554.058594 450 554.058594 Z M 450 554.058594 " clip-rule="nonzero"/></clipPath><clipPath id="9b2d51e98a"><path d="M 0.367188 0.0585938 L 519.632812 0.0585938 L 519.632812 519.328125 L 0.367188 519.328125 Z M 0.367188 0.0585938 " clip-rule="nonzero"/></clipPath><clipPath id="4abcf85635"><path d="M 260 0.0585938 C 116.609375 0.0585938 0.367188 116.300781 0.367188 259.695312 C 0.367188 403.085938 116.609375 519.328125 260 519.328125 C 403.390625 519.328125 519.632812 403.085938 519.632812 259.695312 C 519.632812 116.300781 403.390625 0.0585938 260 0.0585938 Z M 260 0.0585938 " clip-rule="nonzero"/></clipPath><clipPath id="b5b467524b"><rect x="0" width="520" y="0" height="520"/></clipPath><clipPath id="fa8f77a9f4"><path d="M 225 588.695312 L 675 588.695312 L 675 1038.695312 L 225 1038.695312 Z M 225 588.695312 " clip-rule="nonzero"/></clipPath><clipPath id="a20f807ac3"><path d="M 450 588.695312 C 325.734375 588.695312 225 689.429688 225 813.695312 C 225 937.957031 325.734375 1038.695312 450 1038.695312 C 574.265625 1038.695312 675 937.957031 675 813.695312 C 675 689.429688 574.265625 588.695312 450 588.695312 Z M 450 588.695312 " clip-rule="nonzero"/></clipPath><clipPath id="80ac052fdf"><path d="M 0 0.695312 L 450 0.695312 L 450 450.695312 L 0 450.695312 Z M 0 0.695312 " clip-rule="nonzero"/></clipPath><clipPath id="1ae647ab49"><path d="M 225 0.695312 C 100.734375 0.695312 0 101.429688 0 225.695312 C 0 349.957031 100.734375 450.695312 225 450.695312 C 349.265625 450.695312 450 349.957031 450 225.695312 C 450 101.429688 349.265625 0.695312 225 0.695312 Z M 225 0.695312 " clip-rule="nonzero"/></clipPath><clipPath id="bf22af1600"><rect x="0" width="450" y="0" height="451"/></clipPath></defs><rect x="-150" width="1800" fill="#ffffff" y="-149.999993" height="1799.99992" fill-opacity="1"/><rect x="-150" width="1800" fill="#ffffff" y="-149.999993" height="1799.99992" fill-opacity="1"/><g clip-path="url(#538a18bd50)"><g transform="matrix(1, 0, 0, 1, 150, 502)"><g clip-path="url(#017f905327)"><g clip-path="url(#e7b12d06fb)"><path fill="#af4d98" d="M 0 0.617188 L 1200.039062 0.617188 L 1200.039062 680.285156 L 0 680.285156 Z M 0 0.617188 " fill-opacity="1" fill-rule="nonzero"/></g></g></g></g><g clip-path="url(#1f08c30d92)"><g transform="matrix(1, 0, 0, 1, 450, 349)"><g clip-path="url(#f5bc310c4b)"><g clip-path="url(#013c6dcf46)"><path fill="#af4d98" d="M 0 0.652344 L 600.214844 0.652344 L 600.214844 185.554688 L 0 185.554688 Z M 0 0.652344 " fill-opacity="1" fill-rule="nonzero"/></g></g></g></g><g clip-path="url(#7523167661)"><g clip-path="url(#ebd90ad67a)"><g transform="matrix(1, 0, 0, 1, 790, 554)"><g clip-path="url(#c348846e32)"><g clip-path="url(#9bc8a65713)"><g clip-path="url(#4ce003ca0e)"><path fill="#ffffff" d="M 0.367188 0.0585938 L 519.632812 0.0585938 L 519.632812 519.328125 L 0.367188 519.328125 Z M 0.367188 0.0585938 " fill-opacity="1" fill-rule="nonzero"/></g></g></g></g></g></g><g clip-path="url(#6d2bd6212a)"><g clip-path="url(#423d6da968)"><g transform="matrix(1, 0, 0, 1, 825, 588)"><g clip-path="url(#ffa79b2c50)"><g clip-path="url(#b5f7d3c314)"><g clip-path="url(#b20d667361)"><path fill="#af4d98" d="M 0 0.695312 L 450 0.695312 L 450 450.695312 L 0 450.695312 Z M 0 0.695312 " fill-opacity="1" fill-rule="nonzero"/></g></g></g></g></g></g><g clip-path="url(#9cb22ec338)"><g clip-path="url(#8db126622c)"><g transform="matrix(1, 0, 0, 1, 675, 1038)"><g clip-path="url(#af3cf9e3e4)"><g clip-path="url(#3cd194c1c4)"><g clip-path="url(#8daaac6d6b)"><path fill="#ffffff" d="M 150 131.945312 L -0.21875 131.945312 L -0.21875 0.695312 L 150 0.695312 Z M 150 131.945312 " fill-opacity="1" fill-rule="nonzero"/></g></g></g></g></g></g><g clip-path="url(#5af9bc647e)"><g clip-path="url(#2b28720431)"><g transform="matrix(1, 0, 0, 1, 190, 554)"><g clip-path="url(#b5b467524b)"><g clip-path="url(#9b2d51e98a)"><g clip-path="url(#4abcf85635)"><path fill="#ffffff" d="M 0.367188 0.0585938 L 519.632812 0.0585938 L 519.632812 519.328125 L 0.367188 519.328125 Z M 0.367188 0.0585938 " fill-opacity="1" fill-rule="nonzero"/></g></g></g></g></g></g><g clip-path="url(#fa8f77a9f4)"><g clip-path="url(#a20f807ac3)"><g transform="matrix(1, 0, 0, 1, 225, 588)"><g clip-path="url(#bf22af1600)"><g clip-path="url(#80ac052fdf)"><g clip-path="url(#1ae647ab49)"><path fill="#af4d98" d="M 0 0.695312 L 450 0.695312 L 450 450.695312 L 0 450.695312 Z M 0 0.695312 " fill-opacity="1" fill-rule="nonzero"/></g></g></g></g></g></g></svg>